<mxfile host="app.diagrams.net" agent="Mozilla/5.0 (X11; Linux x86_64) AppleWebKit/537.36 (KHTML, like Gecko) Chrome/128.0.0.0 Safari/537.36" version="24.8.0">
  <diagram name="Page-1" id="OLlmoAb0uH4LN58cC4p5">
    <mxGraphModel dx="690" dy="509" grid="1" gridSize="10" guides="1" tooltips="1" connect="1" arrows="1" fold="1" page="1" pageScale="1" pageWidth="850" pageHeight="1100" math="0" shadow="0">
      <root>
        <mxCell id="0" />
        <mxCell id="1" parent="0" />
        <mxCell id="i-IlcOfZFjZSP7zTeQv6-22" style="edgeStyle=orthogonalEdgeStyle;rounded=0;orthogonalLoop=1;jettySize=auto;html=1;exitX=0.5;exitY=1;exitDx=0;exitDy=0;" edge="1" parent="1">
          <mxGeometry relative="1" as="geometry">
            <mxPoint x="600" y="360" as="targetPoint" />
            <mxPoint x="600" y="280" as="sourcePoint" />
          </mxGeometry>
        </mxCell>
        <mxCell id="i-IlcOfZFjZSP7zTeQv6-23" value="Алгоритм&lt;div&gt;хеширования&lt;/div&gt;" style="edgeLabel;html=1;align=center;verticalAlign=middle;resizable=0;points=[];" vertex="1" connectable="0" parent="i-IlcOfZFjZSP7zTeQv6-22">
          <mxGeometry x="-0.775" y="-2" relative="1" as="geometry">
            <mxPoint x="-8" y="21" as="offset" />
          </mxGeometry>
        </mxCell>
        <mxCell id="i-IlcOfZFjZSP7zTeQv6-4" style="edgeStyle=orthogonalEdgeStyle;rounded=0;orthogonalLoop=1;jettySize=auto;html=1;exitX=0.5;exitY=1;exitDx=0;exitDy=0;" edge="1" parent="1">
          <mxGeometry relative="1" as="geometry">
            <mxPoint x="660" y="360" as="targetPoint" />
            <mxPoint x="660" y="280" as="sourcePoint" />
          </mxGeometry>
        </mxCell>
        <mxCell id="i-IlcOfZFjZSP7zTeQv6-5" value="Правила&amp;nbsp;&lt;div&gt;валидации&lt;/div&gt;&lt;div&gt;данных&lt;/div&gt;&lt;div&gt;аутентификации&lt;/div&gt;" style="edgeLabel;html=1;align=center;verticalAlign=middle;resizable=0;points=[];" vertex="1" connectable="0" parent="i-IlcOfZFjZSP7zTeQv6-4">
          <mxGeometry x="-0.775" y="-2" relative="1" as="geometry">
            <mxPoint y="30" as="offset" />
          </mxGeometry>
        </mxCell>
        <mxCell id="i-IlcOfZFjZSP7zTeQv6-10" style="edgeStyle=orthogonalEdgeStyle;rounded=0;orthogonalLoop=1;jettySize=auto;html=1;" edge="1" parent="1">
          <mxGeometry relative="1" as="geometry">
            <mxPoint x="590" y="380" as="targetPoint" />
            <mxPoint x="440" y="380" as="sourcePoint" />
          </mxGeometry>
        </mxCell>
        <mxCell id="i-IlcOfZFjZSP7zTeQv6-11" value="Данные&lt;div&gt;аутентификации&lt;/div&gt;" style="edgeLabel;html=1;align=center;verticalAlign=middle;resizable=0;points=[];" vertex="1" connectable="0" parent="i-IlcOfZFjZSP7zTeQv6-10">
          <mxGeometry x="-0.2425" relative="1" as="geometry">
            <mxPoint x="23" y="-10" as="offset" />
          </mxGeometry>
        </mxCell>
        <mxCell id="i-IlcOfZFjZSP7zTeQv6-14" style="edgeStyle=orthogonalEdgeStyle;rounded=0;orthogonalLoop=1;jettySize=auto;html=1;exitX=0.25;exitY=0;exitDx=0;exitDy=0;" edge="1" parent="1">
          <mxGeometry relative="1" as="geometry">
            <mxPoint x="620.047619047619" y="430" as="targetPoint" />
            <mxPoint x="620" y="510" as="sourcePoint" />
          </mxGeometry>
        </mxCell>
        <mxCell id="i-IlcOfZFjZSP7zTeQv6-15" value="Пользователь" style="edgeLabel;html=1;align=center;verticalAlign=middle;resizable=0;points=[];" vertex="1" connectable="0" parent="i-IlcOfZFjZSP7zTeQv6-14">
          <mxGeometry x="0.4166" y="3" relative="1" as="geometry">
            <mxPoint as="offset" />
          </mxGeometry>
        </mxCell>
        <mxCell id="i-IlcOfZFjZSP7zTeQv6-18" style="edgeStyle=orthogonalEdgeStyle;rounded=0;orthogonalLoop=1;jettySize=auto;html=1;exitX=1;exitY=0.5;exitDx=0;exitDy=0;" edge="1" parent="1" source="i-IlcOfZFjZSP7zTeQv6-1">
          <mxGeometry relative="1" as="geometry">
            <mxPoint x="810" y="395.1428571428571" as="targetPoint" />
          </mxGeometry>
        </mxCell>
        <mxCell id="i-IlcOfZFjZSP7zTeQv6-19" value="Документ&lt;div&gt;статьи&lt;/div&gt;" style="edgeLabel;html=1;align=center;verticalAlign=middle;resizable=0;points=[];" vertex="1" connectable="0" parent="i-IlcOfZFjZSP7zTeQv6-18">
          <mxGeometry x="-0.274" y="-1" relative="1" as="geometry">
            <mxPoint x="20" y="-20" as="offset" />
          </mxGeometry>
        </mxCell>
        <mxCell id="i-IlcOfZFjZSP7zTeQv6-1" value="Получение&lt;div&gt;документа&lt;/div&gt;&lt;div&gt;перевода&lt;/div&gt;" style="rounded=0;whiteSpace=wrap;html=1;" vertex="1" parent="1">
          <mxGeometry x="590" y="360" width="180" height="70" as="geometry" />
        </mxCell>
        <mxCell id="i-IlcOfZFjZSP7zTeQv6-2" value="" style="endArrow=none;html=1;rounded=0;exitX=0;exitY=0.25;exitDx=0;exitDy=0;entryX=0.125;entryY=0.02;entryDx=0;entryDy=0;entryPerimeter=0;" edge="1" parent="1">
          <mxGeometry width="50" height="50" relative="1" as="geometry">
            <mxPoint x="590" y="375" as="sourcePoint" />
            <mxPoint x="605" y="361.19999999999993" as="targetPoint" />
          </mxGeometry>
        </mxCell>
        <mxCell id="i-IlcOfZFjZSP7zTeQv6-6" style="edgeStyle=orthogonalEdgeStyle;rounded=0;orthogonalLoop=1;jettySize=auto;html=1;exitX=0.5;exitY=1;exitDx=0;exitDy=0;" edge="1" parent="1">
          <mxGeometry relative="1" as="geometry">
            <mxPoint x="760" y="360" as="targetPoint" />
            <mxPoint x="760" y="280" as="sourcePoint" />
          </mxGeometry>
        </mxCell>
        <mxCell id="i-IlcOfZFjZSP7zTeQv6-7" value="Правила&lt;div&gt;валидации&lt;/div&gt;&lt;div&gt;данных&lt;/div&gt;&lt;div&gt;статьи&lt;/div&gt;" style="edgeLabel;html=1;align=center;verticalAlign=middle;resizable=0;points=[];" vertex="1" connectable="0" parent="i-IlcOfZFjZSP7zTeQv6-6">
          <mxGeometry x="-0.775" y="-2" relative="1" as="geometry">
            <mxPoint y="30" as="offset" />
          </mxGeometry>
        </mxCell>
        <mxCell id="i-IlcOfZFjZSP7zTeQv6-8" style="edgeStyle=orthogonalEdgeStyle;rounded=0;orthogonalLoop=1;jettySize=auto;html=1;exitX=0.5;exitY=1;exitDx=0;exitDy=0;" edge="1" parent="1">
          <mxGeometry relative="1" as="geometry">
            <mxPoint x="720" y="360" as="targetPoint" />
            <mxPoint x="720" y="280" as="sourcePoint" />
          </mxGeometry>
        </mxCell>
        <mxCell id="i-IlcOfZFjZSP7zTeQv6-9" value="Настройки&lt;div&gt;переводчика&lt;/div&gt;" style="edgeLabel;html=1;align=center;verticalAlign=middle;resizable=0;points=[];" vertex="1" connectable="0" parent="i-IlcOfZFjZSP7zTeQv6-8">
          <mxGeometry x="-0.775" y="-2" relative="1" as="geometry">
            <mxPoint y="-20" as="offset" />
          </mxGeometry>
        </mxCell>
        <mxCell id="i-IlcOfZFjZSP7zTeQv6-12" style="edgeStyle=orthogonalEdgeStyle;rounded=0;orthogonalLoop=1;jettySize=auto;html=1;" edge="1" parent="1">
          <mxGeometry relative="1" as="geometry">
            <mxPoint x="590" y="420" as="targetPoint" />
            <mxPoint x="440" y="420" as="sourcePoint" />
          </mxGeometry>
        </mxCell>
        <mxCell id="i-IlcOfZFjZSP7zTeQv6-13" value="Введённые&lt;div&gt;данные&lt;/div&gt;" style="edgeLabel;html=1;align=center;verticalAlign=middle;resizable=0;points=[];" vertex="1" connectable="0" parent="i-IlcOfZFjZSP7zTeQv6-12">
          <mxGeometry x="-0.2425" relative="1" as="geometry">
            <mxPoint x="23" y="-10" as="offset" />
          </mxGeometry>
        </mxCell>
        <mxCell id="i-IlcOfZFjZSP7zTeQv6-16" style="edgeStyle=orthogonalEdgeStyle;rounded=0;orthogonalLoop=1;jettySize=auto;html=1;exitX=0.25;exitY=0;exitDx=0;exitDy=0;" edge="1" parent="1">
          <mxGeometry relative="1" as="geometry">
            <mxPoint x="690.047619047619" y="430" as="targetPoint" />
            <mxPoint x="690" y="510" as="sourcePoint" />
          </mxGeometry>
        </mxCell>
        <mxCell id="i-IlcOfZFjZSP7zTeQv6-17" value="База данных" style="edgeLabel;html=1;align=center;verticalAlign=middle;resizable=0;points=[];" vertex="1" connectable="0" parent="i-IlcOfZFjZSP7zTeQv6-16">
          <mxGeometry x="0.4166" y="3" relative="1" as="geometry">
            <mxPoint x="20" y="30" as="offset" />
          </mxGeometry>
        </mxCell>
        <mxCell id="i-IlcOfZFjZSP7zTeQv6-20" style="edgeStyle=orthogonalEdgeStyle;rounded=0;orthogonalLoop=1;jettySize=auto;html=1;" edge="1" parent="1">
          <mxGeometry relative="1" as="geometry">
            <mxPoint x="660.047619047619" y="430" as="targetPoint" />
            <mxPoint x="660" y="520" as="sourcePoint" />
          </mxGeometry>
        </mxCell>
        <mxCell id="i-IlcOfZFjZSP7zTeQv6-21" value="Внешний GPT-сервис" style="edgeLabel;html=1;align=center;verticalAlign=middle;resizable=0;points=[];" vertex="1" connectable="0" parent="i-IlcOfZFjZSP7zTeQv6-20">
          <mxGeometry x="0.4166" y="3" relative="1" as="geometry">
            <mxPoint x="3" y="77" as="offset" />
          </mxGeometry>
        </mxCell>
      </root>
    </mxGraphModel>
  </diagram>
</mxfile>
